# xmcd
#
# Track frame offsets:
# 150
# 17701
# 29553
# 50099
# 67331
# 81353
# 92923
# 109297
# 126006
# 141419
# 158209
# 175242
# 188263
# 194917
#
# Disc length: 2854 seconds
#
#
# Revision: 0
# Processed by: cddbd v1.5.2PL0 Copyright (c) Steve Scherf et al.
# Submitted via: FreeRIP 2.951 
#
DISCID=d30b240e
DTITLE=Program izelítõ 2007 - Világzenei koncertek a Mûvészetek Palotájában
DYEAR=1900
DGENRE=Country
TTITLE0=Goran Bregovic: So Neva Si
TTITLE1=Sebõ: Harmatocska
TTITLE2=Hamon Martin Quintett: La fountaine des amants
TTITLE3=Zerkula János: Esik esõ...
TTITLE4=George Dalaras: The Overcoat
TTITLE5=Palya Bea: Katitzához keserûségemben
TTITLE6=Maurice El Medioni: Rai Rock Rumba
TTITLE7=Les Hurlements d'Léo: Ici, d'ailleurs
TTITLE8=Erik Marchand: Speied
TTITLE9=Ba Cissoko: Women (Dounia Guinée)
TTITLE10=Lo'Jo: Tu viens richesse
TTITLE11=Kerekes Band: Pimasz
TTITLE12=Berecz András: Egy szegény kis Zsuzsi-vers
TTITLE13=Muzsikás: Bonchidai ritka magyar
EXTD=Élmény! Minden tekintetben.\nSzP
EXTT0=
EXTT1=
EXTT2=
EXTT3=
EXTT4=
EXTT5=
EXTT6=
EXTT7=
EXTT8=
EXTT9=
EXTT10=
EXTT11=
EXTT12=
EXTT13=
PLAYORDER=
